<?xml version="1.0" encoding="iso-8859-1"?>
<!-- Uploaded to: SVG Repo, www.svgrepo.com, Generator: SVG Repo Mixer Tools -->
<svg fill="#000000" height="800px" width="800px" version="1.1" id="Layer_1" xmlns="http://www.w3.org/2000/svg" xmlns:xlink="http://www.w3.org/1999/xlink" 
	 viewBox="0 0 512 512" xml:space="preserve">
<g>
	<g>
		<g>
			<path d="M424.747,4.544C422.741,1.707,419.477,0,416,0H309.333c-4.501,0-8.533,2.837-10.069,7.083l-43.712,122.389L212.736,7.147
				C211.243,2.859,207.189,0,202.667,0H96c-3.477,0-6.741,1.685-8.747,4.544c-1.984,2.859-2.475,6.507-1.28,9.771l82.709,227.456
				c-37.483,27.157-62.016,71.168-62.016,120.896C106.667,445.013,173.653,512,256,512s149.333-66.987,149.333-149.333
				c0-49.728-24.533-93.739-62.016-120.896l82.709-227.456C427.221,11.029,426.731,7.381,424.747,4.544z M111.232,21.333h83.861
				l67.328,192.32c-2.155-0.085-4.267-0.32-6.421-0.32c-24.811,0-48.192,6.165-68.8,16.917L111.232,21.333z M384,362.667
				c0,70.592-57.408,128-128,128s-128-57.408-128-128s57.408-128,128-128S384,292.075,384,362.667z M324.8,230.251
				c-12.096-6.315-25.088-11.093-38.827-13.909l-19.2-54.848l50.069-140.16h83.925L324.8,230.251z"/>
			<path d="M214.464,314.091c2.645,5.269,9.024,7.403,14.315,4.779L256,305.259v132.075c0,5.888,4.779,10.667,10.667,10.667
				s10.667-4.779,10.667-10.667V288c0-3.691-1.92-7.125-5.056-9.088c-3.157-1.963-7.061-2.133-10.368-0.469l-42.667,21.333
				C213.973,302.421,211.819,308.821,214.464,314.091z"/>
		</g>
	</g>
</g>
</svg>