<?xml version="1.0" encoding="UTF-8"?>
<svg version="1.1" viewBox="0 0 1850 2048" width="1280" height="1280" xmlns="http://www.w3.org/2000/svg">
<path transform="translate(1786,32)" d="m0 0h6l-3 12-10 27-8 19-18 42-5 13-5 6-8 16-12 19-12 18-11 14-9 10-8 10-29 29-11 9-13 11-19 14-22 15-19 12-13 8-16 8-15 8-42 19-32 13-27 10-28 10-46 15-21 6-25 8-34 9-133 37-48 14-39 12-56 19-51 20-24 11-6 12-9 25-14 41-8 25-12 40-12 44-22 87-12 54-11 46-5 23 25-8 33-11 37-12 22-7 123-38 46-14 34-10 41-12 25-8 49-14 22-7h6l-2 10-10 24-11 25-12 27-16 35-16 34-19 38-12 21-8 13-15 23-12 18-8 10-11 12-8 9h-2v2l-8 7-14 13-12 9-11 8-19 12-29 15-22 10-16 8-47 17-37 13-45 15-43 14-29 10-38 12-2 1-5 25-9 38-12 49-23 93-10 35-13 45-14 47-9 29-12 36-9 26-12 31-7 16-7 15-5 12-8 18-8 16-10 19-8 14-13 20-12 17-11 14-13 16-10 11-7 8-19 19-11 9-15 12-19 13-11 7-16 8-25 11-21 6-29 6-17 2h-31l-24-3-26-5-23-8-30-13-20-11-13-10-11-9-15-14-7-7-7-8-10-12-12-18-7-12-9-20-9-24-6-20-5-23-4-27-1-9v-49l5-41 5-34 7-31 8-26 7-22 9-25 14-35 16-34 13-25 13-22 15-24 12-18 14-19 10-13 11-14 13-16 13-15 11-12 7-7 7-8 33-33 8-7 8-8 8-7 14-12 14-11 9-8 12-9 15-12 18-13 20-15 36-24 7-5 4-16 12-57 9-42 10-41 8-37 14-63 7-30 11-47 9-37 15-59 15-57 12-40 20-61 11-31 11-24 8-16 9-16 4-8 12-17 9-11 11-12 17-17 11-9 12-9 20-13 16-9 21-11 25-11 30-12 30-11 47-16 36-11 48-13 29-9 43-11 44-12 75-20 54-14 32-8 172-46 256-69 20-6 34-9 25-7zm-1410 1418-9 6-17 14-8 8-8 7-27 27-9 11-11 14-8 13-12 22-8 20-5 18-3 19-1 11v9l3 17 6 17 8 15 12 16 11 10 7 5 18 8 2-1 3-10 8-38 12-56 16-74 14-64 8-38v-6z" fill="#7273AD"/>
<path transform="translate(1786,32)" d="m0 0h6l-3 12-10 27-8 19-18 42-5 13-5 6-8 16-12 19-12 18-11 14-9 10-8 10-29 29-11 9-13 11-19 14-22 15-19 12-13 8-16 8-15 8-42 19-32 13-27 10-28 10-46 15-21 6-25 8-34 9-133 37-48 14-39 12-56 19-51 20-24 11-6 12-9 25-14 41-8 25-12 40-12 44-22 87-12 54-11 46-5 22-2 3-10 4-7 2-19 7-12 3-8 4-7 2-12 5-34 13-13 4-27 11-31 13-32 14-30 14-27 13-19 10-25 14-20 12-13 8-6 4h-2v-5l3-1 1-5v-18l11-52 8-36 7-30 8-35 14-65 7-29 11-48 10-41 16-63 15-57 12-40 20-61 11-31 11-24 8-16 9-16 4-8 12-17 9-11 11-12 17-17 11-9 12-9 20-13 16-9 21-11 25-11 30-12 30-11 47-16 36-11 48-13 29-9 43-11 44-12 75-20 54-14 32-8 172-46 256-69 20-6 34-9 25-7z" fill="#7273AD"/>
<path transform="translate(736,1276)" d="m0 0h1v7l-10 44-8 32-18 73-16 64-12 41-13 44-14 47-14 43-13 36-14 35-9 19-5 12-8 18-8 16-10 19-8 14-13 20-12 17-11 14-13 16-10 11-7 8-19 19-11 9-15 12-19 13-11 7-16 8-25 11-21 6-29 6-17 2h-31l-24-3-26-5-23-8-30-13-20-11-13-10-11-9-15-14-7-7-7-8-10-12-12-18-7-12-9-20-9-24-6-20-5-23-4-27-1-9v-49l5-41 5-34 7-31 8-26 7-22 9-25 14-35 3-7 4-1-2 8-2 10-5 26-3 8-1 11 1 22 1 3 1 13 2 11 1 9 4 17 6 15 8 16 7 11 8 10 9 10 10 9 17 13 4 2h2l1 2 3 1 2 2h2l-2-2-2-1v-2l-5-2-1-3-4-1-1-3-6-2-1-3-3-1-1-5-6-2-3-3v-2l-5-2-3-4-4-2-2-7-3-3-2-6v-2l4 2 4 1 2 1v3l2 1h-2v2h2l1 3v2l2 4h3l1 2 3 2 9 9 4 2 5 5 7 6 1 4 5 2 4 2 3 3 5 2 4 3 4 2v2l5 1 7 4v2h7l5-1 1 3h2v2l6 2 7 1 2 4h-3v2h8l2-2 2 4 10 2 3-3 7-1 1 4-2 1 10 2h31l29-4 23-5 21-7h-3l-12 3-6 3-7 1h-13l-1 2-6 1-4-3-7-3v-5h2v-2l-4-1 1-4 1-3v-9l12-57 16-75 14-64 8-38 4-17 4-18 3-7 8-6 24-16 28-17 23-13 24-13 21-11 23-11 34-16 30-13 38-16 43-17 44-16z" fill="#4E3E83"/>
<path transform="translate(1786,32)" d="m0 0h6l-3 12-10 27-8 19-18 42-5 13-5 6-8 16-12 19-12 18-11 14-9 10-8 10-29 29-11 9-13 11-19 14-22 15-19 12-13 8-16 8-15 8-42 19-32 13-27 10-28 10-46 15-21 6-25 8-34 9-76 21-39 11-4-1 9-4 2-4 5-3 19-6 14-4 6-2 9-4 8-4 3-3 6-3 1-2h2v-2l7-2 2-1 1-3-2-1 9 1v-4l-7-1-1-3h2l2-5 5 1 1-3-7 1-2-4-8-1-5-3v-2l-6-1-2-1-2-3h-3v2l-7-2 1-3 6 1 4-3-2-4-6-3-1-5h3v-2l-7-2-1-4v-3l-4-1h-3l-2-4-2-2v-4l-5-1-1-4-3-1 1-4-4-1-1-7-3-3-5-1-2-5v-2l-7-6-2-10-4-4-4-8 1-3v-3h-3l-2-3v-3h-5l2-5v-3-3h-2l-4-7-2-3h-6l-4-8 1-4-1-6-2-2v-2l-2-8-3-2v-3l-4-2 1-3-7-2-3-1-1-4 14-5h4v-2l12-4 5-2 6-1 3-1 1-3 2 1 2-1-8 1-9 1 4-2 41-11 64-16 37-10 68-18 37-10 41-11 252-68 20-6 34-9 25-7z" fill="#5A91C8"/>
<path transform="translate(1266,811)" d="m0 0h6l-2 10-10 24-11 25-12 27-16 35-16 34-19 38-12 21-8 13-15 23-12 18-8 10-11 12-8 9h-2v2l-8 7-14 13-12 9-11 8-19 12-29 15-22 10-16 8-47 17-37 13-45 15-43 14-29 10-12 3v-2l5-3h2l2-4 3-3-1-2 8-6h2v-2l9-5 1-5-1-3h2v-3l4-1v-5h-2v-4l-3-1-2-5h-11l-2-1v-2l-6 1v-2l-4-1-5-2-1-4-8-2-3-5-1-7-2-7-3-8-2 1-2-3-1-3v-2l-2-1-1-7-6-3-2-3 4-1-1-5-5-2-2-2 1-3-3 1-7-2-2-7-5-6-4-3v-7l-3 1-6-6h-3l-2-12-4-4-1-5v-2-3l-7-1v-6l4-3-6-3-3-7v-3l-7-2-2-8v-3l-6-2-1-1v-6l3-2 1-5-4-2 7-6 2-4 4-2 4-5 6-3-4-1 2-4h2v-2l5-1 1-3v-1-2l20-7 29-11 5-3 9-2 5-3 12-3 12-4 8-4 9-2 7-3 2-2 9-2 16-5 33-11 37-12 22-7 123-38 46-14 34-10 41-12 25-8 49-14z" fill="#5991C8"/>
<path transform="translate(913,557)" d="m0 0h3l-1 7-7 20-9 25-14 42-10 33-14 50-24 95-12 54-11 46-5 22-2 3-10 4-7 2-19 7-12 3-8 4-7 2-12 5-34 13-13 4-27 11-31 13-32 14-30 14-27 13-19 10-25 14-20 12-13 8-6 4h-2v-5l3-1 1-5v-18l11-52 8-36 7-30 5-21 3-5 5-15h2l1-4 3-6 1-4-2-1 2-4v-2h2l1-6 3-4h2l2-5 6-9 1-3h2l1-5 4-6 1-4 7-3 3-3 4-1 3-5 1-6 4-1 6-7 4-5-2-1v-4h2l1-3h2v-3h2v-3l5-1 1-4 4-3 2 1v2l2-3h2v-3h-2v-2h2l1-4h2l1-4 5-5h2l2-4h2v-2l6-5 4-5 6-5 4-5h2l1-3 5-4h2v-2l7-3 5-2-3-2 5-3 3-1 5-9 6-4 6-7 3-1 3-6 4-2 2-4 9-6 5-5-1 3 4-1 6-4 8-7 1-3 7-3 13-11 32-24 17-12 24-16 17-11 23-14 25-14 27-14 21-10z" fill="#4E3E83"/>
<path transform="translate(736,1276)" d="m0 0h1v7l-10 44-8 32-10 41-3 7-3 5h-2l-4 11-3 11-9 25-11 26-13 23-13 22-13 19-14 20-12 15-9 11-12 11-7 8-10 9-9 9-8 7-14 12-14 11-20 15-19 13-19 12-19 11-17 8-13 6-19 7-27 7-17 2-19-1-10-2-6-2-1-7v-9l12-57 16-75 14-64 8-38 4-17 4-18 3-7 8-6 24-16 28-17 23-13 24-13 21-11 23-11 34-16 30-13 38-16 43-17 44-16z" fill="#4E3E83"/>
<path transform="translate(707,1402)" d="m0 0 1 2-19 77-10 35-13 45-14 47-9 29-12 36-9 26-12 31-7 16-7 15-5 12-8 18-8 16-10 19-8 14-13 20-12 17-11 14-13 16-10 11-7 8-19 19-11 9-15 12-19 13-11 7-14 7h-2l1-4 4-2 6-5 7-2v-3l3-3 9-5 7-5h3l1-2 6-5h2l1-2h3l1-2 5-4 2 1 11-11 4-5 5-5 1-2h2l1-2 6-5h2l2-4 7-7 1-2-2-2-5 4-6 4-6 5h-10l-1-10-4-3h-16l-4 2h-5l-3 2-10-2h-6l-6-1h-5l-2-2-1-5-6-1-5-3-2-4-6-2-3-3-4-2-2-2-5-1-1-5h-8v-4l-10-2-7-3-6-1-1 2-2-1 2-4h-9v-3l-7-2-5-5-2 2-1-4h-8l-2-4-9-5h-2l-1-4-6-1-1-2 1-3-3-1v-2l-4 1-7-5v-2l-6-2-3-3-4-3-8-3v-3h-2v-2h-5l-2-3v-2l-7-2-4-3-8-3v-2h-2l-1-4-5-1-4-2-2-5-6-2-4-2-1-3h-6l-2-3v-3h-6l-1-5-3-2-6-3 1-3-2-1 2-4-6-4-4-3-5-3-3-7 3-1 3 3 4 1h3l-2 1v2l10-1v2h6l12 4v2l7 1 4 1v-2l-5-1-18-8-18-10 1-2h2l-2-2-2-1v-2l-5-2-1-3-4-1-1-3-6-2-1-3-3-1-1-5-6-2-3-3v-2l-5-2-3-4-4-2-2-7-3-3-2-6v-2l4 2 4 1 2 1v3l2 1h-2v2h2l1 3v2l2 4h3l1 2 3 2 9 9 4 2 5 5 7 6 1 4 5 2 4 2 3 3 5 2 4 3 4 2v2l5 1 7 4v2h7l5-1 1 3h2v2l6 2 7 1 2 4h-3v2h8l2-2 2 4 10 2 3-3 7-1 1 4-2 1 10 2h31l29-4 23-5 21-7h-3l-12 3-6 3-7 1h-13l-1 2-6 1-4-3-7-3v-5h2v-2l-4-1 1-4h2v4l9 2 20 2 16-1 15-3 25-7 25-10 15-8 12-6 23-14 12-8 17-12 17-13 10-8 13-11 10-9 8-7 10-10 8-7 7-8 7-6 9-11 11-14 12-17 18-27 21-36 9-20 10-26 5-15 4-14 3-3 2-1z" fill="#5B5495"/>
<path transform="translate(99,1495)" d="m0 0v3l-1 8-2 7-5 26-3 8-1 11 1 22 1 3 1 13 2 11 1 9 4 17 6 15 8 16 6 9-1 2-2 3 1 3v2l3 1 6 8 4 4v4h-7l-1-4v-2l-10-3-4-2v-5l-6-1-6-5-2-3-1-2 1-7h-3v-2l-10-1-2-2-2 4-2 1-2-1v-3l-6 3 2 2-5 5-3 4h-2l-3-13 1-18 1-4-3-2-2 1v3h-2v6h-1v-7l7-31 8-26 7-22 9-25 14-35 3-7z" fill="#5E5797"/>
<path transform="translate(707,1402)" d="m0 0 1 2-19 77-10 35-13 45-11 37-1-4v-3l-3 3-2 5-7 16-3 7-5-2-1 4-1-4v-4l-2-1-2-7h-3l-2-5-4-2-1-7-5 2-1-3v-2l-11 6-5 2 6-8 8-9 10-13 12-17 18-27 21-36 9-20 10-26 5-15 4-14 3-3 2-1z" fill="#7375AE"/>
<path transform="translate(136,1957)" d="m0 0 4 2 13 10 5 3v2l6 2 19 10 29 12 29 8 8 2v4l3 1 10-1 6 1 1 2h-12l-4 1-26-5-23-8-30-13-20-11-13-10v-3l1-3-4-2z" fill="#5E5796"/>
<path transform="translate(337,1473)" d="m0 0 3 1-4 10-28 28-9 11-11 14-7 10h-2l-1 3-3-1 5-10 1-6 4-7 6-8 4-1 2-4 3-5h2l2-5 17-17 1-2h2v-2l6-4z" fill="#645F9D"/>
<path transform="translate(122,1666)" d="m0 0 4 2 4 1 2 1v3l2 1h-2v2h2l1 3v2l2 4h3l1 2 3 2 9 9 4 2 5 5 7 6 1 4 5 2 4 2 3 3 5 2 4 3 4 2v2l5 1 7 4 1 4 3-1-1 4-2-1-8-2-16-8-11-6 1-2h2l-2-2-2-1v-2l-5-2-1-3-4-1-1-3-6-2-1-3-3-1-1-5-6-2-3-3v-2l-5-2-3-4-4-2-2-7-3-3-2-6z" fill="#5C5696"/>
<path transform="translate(502,1910)" d="m0 0 1 3-15 16-16 16-11 9-15 12-19 13-11 7-14 7h-2l1-4 4-2 6-5 7-2v-3l3-3 9-5 7-5h3l1-2 6-5h2l1-2h3l1-2 5-4 2 1 11-11 4-5 5-5 1-2h2l1-2 8-6z" fill="#645F9C"/>
<path transform="translate(538,854)" d="m0 0h4l-2 5-10 13-11 17-9 16-10 19-7 22-1 3h-2l-2 10-3 1 1-9 3-10 3-7 2-5 2-6h2l1-4 3-6 1-4-2-1 2-4v-2h2l1-6 3-4h2l2-5 6-9 1-3h2l1-5 4-6 1-4 7-3z" fill="#5B5495"/>
<path transform="translate(636,749)" d="m0 0 2 1-49 49-7 8-1-3h-2v-2h2l1-4h2l1-4 5-5h2l2-4h2v-2l6-5 4-5 6-5 4-5h2l1-3 5-4h2v-2l7-3z" fill="#5B5495"/>
<path transform="translate(707,1402)" d="m0 0 1 2-19 77-1 3-3 1-1-2 3-11-1-3 2-5v-7l2-6 6-22v-6l4-11 4-2z" fill="#7978AD"/>
<path transform="translate(144,1966)" d="m0 0 4 2 7 5 1 1 11 6 4 4 5 1 2 2 4 1 1 3 4-1 7 4 5 2v2h5l2 5-9-3-25-11-18-10-9-7v-4z" fill="#625694"/>
<path transform="translate(685,699)" d="m0 0v3l8-2-5 5-10 9-11 9-7 7-8 7-6 6h-2l2-5 3-4 6-5 5-6 3-1 3-6 4-2 2-4 9-6z" fill="#5B5495"/>
<path transform="translate(122,1666)" d="m0 0 4 2 4 1 2 1v3l2 1h-2v2h2l1 3v2l2 4h3l1 2 3 2 5 5 2 5-6-1-4-4v-2l-5-2-3-4-4-2-2-7-3-3-2-6z" fill="#5B5495"/>
<path transform="translate(502,1910)" d="m0 0 1 3-15 16-16 16-8 7h-2v-3l10-10 4-5 5-5 1-2h2l1-2 8-6z" fill="#65629F"/>
<path transform="translate(108,1935)" d="m0 0 4 2 5 5v2l4-1 5 4v2l3 1 2 4v3l4 1 1 3 3 3-1 3-12-11-8-7-10-10v-3z" fill="#6B659F"/>
<path transform="translate(297,1228)" d="m0 0 2 1-60 60-2-1 6-7 38-38 8-7z" fill="#D0D2E5"/>
<path transform="translate(501,918)" d="m0 0 1 2-6 16-3 10-1 3h-2l-2 10-3 1 1-9 3-10 3-7 2-5 2-6h2l2-4z" fill="#615C9B"/>
<path transform="translate(575,807)" d="m0 0 2 1-1 2-1 5-9 10-5 6-1-2-2-1v-4h2l1-3h2v-3h2v-3l5-1 1-4z" fill="#5C5596"/>
<path transform="translate(1262,812)" d="m0 0 4 2-82 24-4-1 15-5 49-14z" fill="#FEFEFE"/>
<path transform="translate(200,1587)" d="m0 0 3 3 1 3-3 9h-2l-2 2-2-1-1 2-2-10-2-1 5-3 3 2h2z" fill="#5B5495"/>
<path transform="translate(194,1607)" d="m0 0 1 4-3 1v2l8 1-1 3-4 1v2l-6 1 1 2-3 1-1-5v-3l1-3h2v-2l4-1z" fill="#5B5495"/>
<path transform="translate(136,1957)" d="m0 0 4 2 13 10 5 3 1 3-5 1v-3l-9-6 2 3-4 1-2-3 1-5-4-2z" fill="#605998"/>
<path transform="translate(257,1694)" d="m0 0 4 2 2 4h2l3 6v4h2l1 7-5-5-2-4v-3h-2l-5-9z" fill="#5B5495"/>
<path transform="translate(643,743)" d="m0 0 2 1-7 6-1-2-2-1 5-3z" fill="#514387"/>
<path transform="translate(40,1699)" d="m0 0h1v22l-1 3-1 25h-1v-32z" fill="#E3E5EF"/>
<path transform="translate(415,1981)" d="m0 0m-5 1h5l1 2-4 4-10 5h-2l1-4 4-2z" fill="#655F9C"/>
<path transform="translate(144,1966)" d="m0 0 4 2 7 5v4l-5-1-5-4v-4z" fill="#635895"/>
<path transform="translate(239,1669)" d="m0 0 6 2 1 3h-2l-1 5-2 1-3-7v-3z" fill="#5B5495"/>
<path transform="translate(456,1086)" d="m0 0h1l1 15-2 4-3 1 1-10z" fill="#7975AA"/>
<path transform="translate(108,1935)" d="m0 0 4 2 5 5 1 6-7-6-3-4z" fill="#827CAE"/>
<path transform="translate(239,1653)" d="m0 0 2 1 2 5-1 5-4-1-1-6z" fill="#5B5495"/>
<path transform="translate(271,1717)" d="m0 0 4 2 5 5v3l-2 2-7-10z" fill="#5B5495"/>
<path transform="translate(448,1959)" d="m0 0 2 1v3l-11 8-1-3h3l2-4z" fill="#7671A6"/>
<path transform="translate(194,1607)" d="m0 0 1 4-3 1 1 4-3 1-1 2-3-3 1-2h2v-2l4-1z" fill="#615C9B"/>
<path transform="translate(116,1574)" d="m0 0 3 1-2 3h-2v2l3 1v2l3-1 1 2-5 1-4-5 1-5z" fill="#5B5495"/>
<path transform="translate(116,1558)" d="m0 0 2 1v3h-2l1 6-4-2-1-5 1-2z" fill="#5B5495"/>
<path transform="translate(555,836)" d="m0 0v3l-9 11-1-2 1-6 4-1z" fill="#5B5495"/>
<path transform="translate(283,1733)" d="m0 0 8 6-2 5-2-3v-2l-4-2z" fill="#5B5495"/>
<path transform="translate(131,1957)" d="m0 0 4 1 1 3 3 3-1 3-6-5z" fill="#7B75A9"/>
<path transform="translate(247,1699)" d="m0 0 3 3v5l-1-2-4-1v-4z" fill="#5B5495"/>
<path transform="translate(1175,196)" d="m0 0h2l-2 4h-11l3-2z" fill="#A8B9D9"/>
<path transform="translate(174,1724)" d="m0 0h5v2l3 1-1 2-5-1-3-3z" fill="#615C9B"/>
<path transform="translate(280,1542)" d="m0 0 2 1-1 4h-2l-1 3-3-1 4-6z" fill="#5D5797"/>
</svg>
