<?xml version="1.0" encoding="iso-8859-1"?>
<!-- Uploaded to: SVG Repo, www.svgrepo.com, Generator: SVG Repo Mixer Tools -->
<svg fill="#000000" height="800px" width="800px" version="1.1" id="Layer_1" xmlns="http://www.w3.org/2000/svg" xmlns:xlink="http://www.w3.org/1999/xlink" 
	 viewBox="0 0 512 512" xml:space="preserve">
<g>
	<g>
		<g>
			<path d="M424.719,4.544C422.735,1.707,419.471,0,415.994,0H309.327c-4.501,0-8.533,2.837-10.048,7.083l-43.712,122.389
				L212.751,7.147C211.237,2.859,207.226,0,202.682,0H96.015c-3.477,0-6.741,1.707-8.725,4.544
				c-2.005,2.859-2.496,6.507-1.301,9.771l82.709,227.456c-37.483,27.157-62.016,71.168-62.016,120.896
				C106.682,445.013,173.69,512,256.015,512s149.333-66.987,149.333-149.333c0-49.728-24.533-93.739-62.037-120.896l82.709-227.456
				C427.194,11.029,426.725,7.381,424.719,4.544z M111.247,21.333h83.883l67.307,192.32c-2.155-0.085-4.267-0.32-6.421-0.32
				c-24.811,0-48.171,6.165-68.8,16.939L111.247,21.333z M384.015,362.667c0,70.592-57.408,128-128,128s-128-57.408-128-128
				s57.408-128,128-128S384.015,292.075,384.015,362.667z M324.794,230.272c-12.096-6.315-25.088-11.093-38.827-13.909l-19.2-54.848
				l50.091-140.181h83.925L324.794,230.272z"/>
			<path d="M213.349,320v10.667c0,5.888,4.779,10.667,10.667,10.667s10.667-4.779,10.667-10.667V320
				c0-11.755,9.557-21.333,21.333-21.333c11.776,0,21.333,9.579,21.333,21.333c0,18.347-6.059,36.523-17.067,51.221l-44.8,59.733
				c-2.411,3.221-2.816,7.552-1.003,11.157c1.813,3.605,5.504,5.888,9.536,5.888h64c5.888,0,10.667-4.779,10.667-10.667
				c0-5.888-4.779-10.667-10.667-10.667h-42.667L277.327,384c13.781-18.325,21.355-41.067,21.355-64
				c0-23.531-19.136-42.667-42.667-42.667C232.485,277.333,213.349,296.469,213.349,320z"/>
		</g>
	</g>
</g>
</svg>